<svg width="2048" height="2048" viewBox="0 0 2048 2048" fill="none" xmlns="http://www.w3.org/2000/svg">
<rect x="256" y="960" width="1536" height="1024" rx="512" fill="url(#paint0_linear_1_2380)"/>
<mask id="mask0_1_2380" style="mask-type:alpha" maskUnits="userSpaceOnUse" x="256" y="960" width="1536" height="1024">
<rect x="256" y="960" width="1536" height="1024" rx="512" fill="#D9D9D9"/>
</mask>
<g mask="url(#mask0_1_2380)">
<path d="M521.333 1144C416 1185.76 287.111 1276 287.111 1276L363.111 913.5L603.556 966C603.556 966 626.667 1102.24 521.333 1144Z" fill="url(#paint1_linear_1_2380)"/>
</g>
<path d="M1184.31 64C1449.41 64.0001 1664.31 278.903 1664.31 544C1664.31 809.097 1449.41 1024 1184.31 1024H406C323.157 1024 256 956.843 256 874V214C256 131.157 323.157 64 406 64H1184.31Z" fill="url(#paint2_linear_1_2380)"/>
<defs>
<linearGradient id="paint0_linear_1_2380" x1="213.778" y1="1583" x2="1402.6" y2="1495.17" gradientUnits="userSpaceOnUse">
<stop stop-color="#4DD6FF"/>
<stop offset="1" stop-color="#3657FF"/>
</linearGradient>
<linearGradient id="paint1_linear_1_2380" x1="471.556" y1="1032" x2="257.102" y2="1301.63" gradientUnits="userSpaceOnUse">
<stop stop-color="#2C5FD6"/>
<stop offset="1" stop-color="#3EA7EC"/>
</linearGradient>
<linearGradient id="paint2_linear_1_2380" x1="200.086" y1="590" x2="1716.77" y2="475.77" gradientUnits="userSpaceOnUse">
<stop stop-color="#3D7BFF"/>
<stop offset="1" stop-color="#55EAFF"/>
</linearGradient>
</defs>
</svg>
